<svg xmlns="http://www.w3.org/2000/svg" viewBox="0 0 520 420" role="img" aria-labelledby="title desc">
  <title id="title">Student profile illustration</title>
  <desc id="desc">A person studying next to code and circuit icons.</desc>
  <rect x="20" y="20" width="480" height="380" rx="36" fill="#eef2ff"/>
  <circle cx="160" cy="150" r="64" fill="#f2a541"/>
  <path d="M90 350c12-76 54-120 122-120s110 44 122 120z" fill="#335cbb"/>
  <rect x="268" y="112" width="154" height="112" rx="18" fill="#ffffff" stroke="#335cbb" stroke-width="8"/>
  <path d="M295 153l23-22 10 10-13 12 13 12-10 10zm82 22l-10-10 13-12-13-12 10-10 23 22z" fill="#335cbb"/>
  <rect x="250" y="248" width="198" height="64" rx="14" fill="#1f2937"/>
  <rect x="272" y="268" width="52" height="12" rx="6" fill="#8fb3ff"/>
  <rect x="338" y="268" width="84" height="12" rx="6" fill="#f6c177"/>
  <path d="M72 88h72M108 52v72M402 326h36M420 308v36" stroke="#335cbb" stroke-width="10" stroke-linecap="round"/>
</svg>
