<svg xmlns="http://www.w3.org/2000/svg" viewBox="0 0 960 560" role="img" aria-labelledby="title desc">
  <title id="title">Homepage screenshot preview</title>
  <desc id="desc">A preview drawing of the personal homepage layout.</desc>
  <rect width="960" height="560" fill="#f7f8fb"/>
  <rect x="50" y="36" width="860" height="64" rx="24" fill="#ffffff"/>
  <circle cx="92" cy="68" r="22" fill="#335cbb"/>
  <rect x="660" y="56" width="52" height="16" rx="8" fill="#c7d2fe"/>
  <rect x="732" y="56" width="58" height="16" rx="8" fill="#c7d2fe"/>
  <rect x="810" y="52" width="70" height="24" rx="12" fill="#335cbb"/>
  <rect x="74" y="138" width="498" height="300" rx="32" fill="#ffffff"/>
  <rect x="116" y="188" width="260" height="38" rx="19" fill="#1f2937"/>
  <rect x="116" y="248" width="386" height="22" rx="11" fill="#9ca3af"/>
  <rect x="116" y="286" width="310" height="22" rx="11" fill="#9ca3af"/>
  <rect x="116" y="344" width="130" height="42" rx="21" fill="#335cbb"/>
  <rect x="610" y="138" width="276" height="300" rx="32" fill="#eef2ff"/>
  <circle cx="710" cy="245" r="58" fill="#f2a541"/>
  <rect x="646" y="322" width="150" height="54" rx="18" fill="#335cbb"/>
  <rect x="100" y="470" width="220" height="50" rx="18" fill="#ffffff"/>
  <rect x="370" y="470" width="220" height="50" rx="18" fill="#ffffff"/>
  <rect x="640" y="470" width="220" height="50" rx="18" fill="#ffffff"/>
</svg>
